<svg width="163" height="1163" viewBox="0 0 163 1163" fill="none" xmlns="http://www.w3.org/2000/svg">
<path d="M46.928 288V84.672H91.856V288H46.928ZM7.76 122.976V84.672H88.976V122.976H7.76Z" fill="#F1F5F9"/>
<path d="M6.912 662.656L84.96 582.016C89.76 577.216 93.6 572.8 96.48 568.768C99.36 564.736 101.472 560.992 102.816 557.536C104.16 553.888 104.832 550.24 104.832 546.592C104.832 538.72 102.24 532.576 97.056 528.16C92.064 523.552 85.44 521.248 77.184 521.248C69.12 521.248 61.824 523.456 55.296 527.872C48.96 532.096 42.816 539.104 36.864 548.896L6.624 522.688C14.688 509.056 24.96 498.784 37.44 491.872C49.92 484.96 64.224 481.504 80.352 481.504C94.368 481.504 106.464 484.096 116.64 489.28C127.008 494.464 134.976 501.856 140.544 511.456C146.304 521.056 149.184 532.288 149.184 545.152C149.184 553.216 148.128 560.704 146.016 567.616C143.904 574.336 140.448 581.056 135.648 587.776C131.04 594.304 124.8 601.504 116.928 609.376L62.784 663.232L6.912 662.656ZM6.912 688V662.656L45.216 649.408H153.216V688H6.912Z" fill="#F1F5F9"/>
<path d="M74.864 1091.17C60.848 1091.17 47.984 1088.77 36.272 1083.97C24.56 1078.98 14.672 1071.87 6.608 1062.66L35.696 1033.57C39.344 1038.94 44.624 1043.36 51.536 1046.82C58.64 1050.08 66.128 1051.71 74 1051.71C81.104 1051.71 87.248 1050.46 92.432 1047.97C97.616 1045.47 101.648 1041.92 104.528 1037.31C107.6 1032.7 109.136 1027.23 109.136 1020.9C109.136 1014.56 107.6 1009.18 104.528 1004.77C101.648 1000.16 97.328 996.608 91.568 994.112C86 991.616 79.28 990.368 71.408 990.368C67.76 990.368 63.92 990.656 59.888 991.232C56.048 991.616 52.784 992.288 50.096 993.248L69.968 968.192C75.344 966.656 80.432 965.408 85.232 964.448C90.224 963.296 94.832 962.72 99.056 962.72C109.424 962.72 118.736 965.216 126.992 970.208C135.248 975.008 141.776 981.92 146.576 990.944C151.568 999.776 154.064 1010.34 154.064 1022.62C154.064 1036.06 150.704 1047.97 143.984 1058.34C137.456 1068.7 128.24 1076.77 116.336 1082.53C104.624 1088.29 90.8 1091.17 74.864 1091.17ZM50.096 993.248V968.192L99.632 910.016L150.32 909.728L98.768 968.48L50.096 993.248ZM19.28 922.976V884.672H150.32V909.728L114.896 922.976H19.28Z" fill="#F1F5F9"/>
<line x1="71.5" y1="320.5" x2="71.5" y2="451.5" stroke="#EEF1F6" stroke-width="9" stroke-linecap="round" stroke-dasharray="18 18"/>
<line x1="71.5" y1="716.5" x2="71.5" y2="847.5" stroke="#EEF1F6" stroke-width="9" stroke-linecap="round" stroke-dasharray="18 18"/>
</svg>
